<?xml version="1.0" standalone="no"?><!DOCTYPE svg PUBLIC "-//W3C//DTD SVG 1.1//EN" "http://www.w3.org/Graphics/SVG/1.1/DTD/svg11.dtd"><svg t="1675584129471" class="icon" viewBox="0 0 1024 1024" version="1.1" xmlns="http://www.w3.org/2000/svg" p-id="3682" width="48" height="48" data-spm-anchor-id="a313x.7781069.0.i6" xmlns:xlink="http://www.w3.org/1999/xlink"><path d="M895.086031 756.688971z m-766.349532 209.636048h766.349532v-209.636048s0 44.67799-158.081109 44.677989-278.361179-182.137123-426.1313-182.137123c-147.770121 0-182.137123 113.40312-182.137123 113.40312v233.692062z" fill="#7CBCE7" p-id="3683"></path><path d="M128.736499 756.691633z m158.081109 44.677989c-158.081109 0-158.081109-44.67799-158.081109-44.677989v209.627175h766.349532v-233.683189s-14.277435-50.179549-162.05643-50.17955c-147.770121 0-288.130884 118.913553-446.211993 118.913553z" fill="#2381BF" opacity=".8" p-id="3684" data-spm-anchor-id="a313x.7781069.0.i5" class=""></path><path d="M574.84556 162.415806c-79.337816 57.84269-96.764451 169.049622-38.921761 248.388326 57.847127 79.345802 169.054946 96.771549 248.39365 38.928859 79.344915-57.847127 96.771549-169.054946 38.923535-248.399861-57.841802-79.338704-169.049622-96.765338-248.395424-38.917324z" fill="#78BAD4" p-id="3685"></path><path d="M685.145622 144.643993c-35.337761 28.800666-57.546315 72.977303-56.587979 122.091147 1.654905 84.78791 71.727029 152.185567 156.514052 150.529775 4.658579-0.09051 9.263917-0.387771 13.809802-0.882912-28.613435 30.18138-68.835161 49.328582-113.703043 50.204396-88.904319 1.735653-162.376763-68.923896-164.111529-157.828215-1.735653-88.903432 68.923009-162.375875 157.827328-164.111529a163.893241 163.893241 0 0 1 6.251369-0.002662z" fill="#E9EB78" p-id="3686"></path></svg>